<svg width="24" height="24" viewBox="0 0 24 24" fill="none" xmlns="http://www.w3.org/2000/svg">
<path d="M18.7692 3.75H5.23077C4.90435 3.75 4.5913 3.89846 4.36048 4.16271C4.12967 4.42697 4 4.78538 4 5.15909V17.8409C4 18.2146 4.12967 18.573 4.36048 18.8373C4.5913 19.1015 4.90435 19.25 5.23077 19.25H18.7692C19.0957 19.25 19.4087 19.1015 19.6395 18.8373C19.8703 18.573 20 18.2146 20 17.8409V5.15909C20 4.78538 19.8703 4.42697 19.6395 4.16271C19.4087 3.89846 19.0957 3.75 18.7692 3.75ZM17.9738 7.77119L10.5892 16.2257C10.5321 16.2912 10.4642 16.3432 10.3895 16.3787C10.3148 16.4141 10.2347 16.4324 10.1538 16.4324C10.073 16.4324 9.9929 16.4141 9.91819 16.3787C9.84348 16.3432 9.77561 16.2912 9.71846 16.2257L6.64154 12.703C6.52607 12.5708 6.4612 12.3915 6.4612 12.2045C6.4612 12.0176 6.52607 11.8383 6.64154 11.7061C6.75701 11.5739 6.91362 11.4996 7.07692 11.4996C7.24022 11.4996 7.39684 11.5739 7.51231 11.7061L10.1538 14.7312L17.1031 6.77426C17.2185 6.64206 17.3752 6.56779 17.5385 6.56779C17.7018 6.56779 17.8584 6.64206 17.9738 6.77426C18.0893 6.90646 18.1542 7.08577 18.1542 7.27273C18.1542 7.45969 18.0893 7.63899 17.9738 7.77119Z" fill="#64A01C"/>
</svg>
