<svg width="24" height="24" viewBox="0 0 24 24" fill="none" xmlns="http://www.w3.org/2000/svg">
<g clip-path="url(#clip0_7_498)">
<path fill-rule="evenodd" clip-rule="evenodd" d="M12 24C15.1826 24 18.2348 22.7357 20.4853 20.4853C22.7357 18.2348 24 15.1826 24 12C24 8.8174 22.7357 5.76516 20.4853 3.51472C18.2348 1.26428 15.1826 0 12 0C8.8174 0 5.76516 1.26428 3.51472 3.51472C1.26428 5.76516 0 8.8174 0 12C0 15.1826 1.26428 18.2348 3.51472 20.4853C5.76516 22.7357 8.8174 24 12 24ZM13.5 7.5C13.5 7.89782 13.342 8.27936 13.0607 8.56066C12.7794 8.84196 12.3978 9 12 9C11.6022 9 11.2206 8.84196 10.9393 8.56066C10.658 8.27936 10.5 7.89782 10.5 7.5C10.5 7.10218 10.658 6.72064 10.9393 6.43934C11.2206 6.15804 11.6022 6 12 6C12.3978 6 12.7794 6.15804 13.0607 6.43934C13.342 6.72064 13.5 7.10218 13.5 7.5ZM10.5 10.5C10.2016 10.5 9.91548 10.6185 9.7045 10.8295C9.49353 11.0405 9.375 11.3266 9.375 11.625C9.375 11.9234 9.49353 12.2095 9.7045 12.4205C9.91548 12.6315 10.2016 12.75 10.5 12.75H10.875V15.75H9.375C9.07663 15.75 8.79048 15.8685 8.5795 16.0795C8.36853 16.2905 8.25 16.5766 8.25 16.875C8.25 17.1734 8.36853 17.4595 8.5795 17.6705C8.79048 17.8815 9.07663 18 9.375 18H14.625C14.9234 18 15.2095 17.8815 15.4205 17.6705C15.6315 17.4595 15.75 17.1734 15.75 16.875C15.75 16.5766 15.6315 16.2905 15.4205 16.0795C15.2095 15.8685 14.9234 15.75 14.625 15.75H13.125V10.5H10.5Z" fill="white"/>
</g>
<defs>
<clipPath id="clip0_7_498">
<rect width="24" height="24" fill="white"/>
</clipPath>
</defs>
</svg>
