<svg width="24" height="24" viewBox="0 0 24 24" fill="none" xmlns="http://www.w3.org/2000/svg">
<rect width="24" height="24" rx="12" fill="#374151"/>
<g clip-path="url(#clip0_7_392)">
<path fill-rule="evenodd" clip-rule="evenodd" d="M7.41361 6.38346C7.54485 6.25242 7.70243 6.15077 7.87591 6.08525C8.0494 6.01972 8.23483 5.99181 8.41992 6.00337C8.60501 6.01493 8.78553 6.06569 8.94951 6.1523C9.1135 6.2389 9.25721 6.35936 9.37111 6.50571L10.7174 8.23521C10.9641 8.55246 11.0511 8.96571 10.9536 9.35571L10.5434 10.9982C10.5222 11.0833 10.5233 11.1724 10.5467 11.2569C10.5701 11.3414 10.6149 11.4184 10.6769 11.4805L12.5196 13.3232C12.5817 13.3853 12.6589 13.4302 12.7435 13.4536C12.8282 13.477 12.9174 13.4781 13.0026 13.4567L14.6444 13.0465C14.8368 12.9983 15.0377 12.9946 15.2318 13.0355C15.4259 13.0765 15.6082 13.161 15.7649 13.2827L17.4944 14.6282C18.1161 15.112 18.1731 16.0307 17.6166 16.5865L16.8411 17.362C16.2861 17.917 15.4566 18.1607 14.6834 17.8885C12.7043 17.1921 10.9073 16.0591 9.42586 14.5735C7.94033 13.0922 6.80732 11.2955 6.11086 9.31671C5.83936 8.54421 6.08311 7.71396 6.63811 7.15896L7.41361 6.38346Z" fill="white"/>
</g>
<defs>
<clipPath id="clip0_7_392">
<rect width="12" height="12" fill="white" transform="translate(6 6)"/>
</clipPath>
</defs>
</svg>
